<?xml version="1.0" encoding="UTF-8"?>
<svg xmlns="http://www.w3.org/2000/svg" xmlns:xlink="http://www.w3.org/1999/xlink" viewBox="0 0 48 48" width="48px" height="48px">
<g id="surface16467431">
<path style=" stroke:none;fill-rule:nonzero;fill:rgb(100%,100%,100%);fill-opacity:1;" d="M 24 9.605469 C 17.601562 9.605469 13.601562 12.804688 12 19.199219 C 14.398438 16.003906 17.199219 14.804688 20.398438 15.601562 C 22.226562 16.058594 23.53125 17.382812 24.976562 18.847656 C 27.328125 21.234375 30.050781 24 36 24 C 42.398438 24 46.398438 20.800781 48 14.402344 C 45.601562 17.601562 42.800781 18.800781 39.601562 18.003906 C 37.773438 17.546875 36.46875 16.222656 35.023438 14.753906 C 32.671875 12.367188 29.949219 9.605469 24 9.605469 Z M 12 24 C 5.601562 24 1.601562 27.199219 0 33.597656 C 2.398438 30.398438 5.199219 29.199219 8.398438 30 C 10.226562 30.457031 11.53125 31.78125 12.976562 33.246094 C 15.328125 35.632812 18.050781 38.398438 24 38.398438 C 30.398438 38.398438 34.398438 35.199219 36 28.800781 C 33.601562 31.996094 30.800781 33.199219 27.601562 32.398438 C 25.773438 31.941406 24.46875 30.617188 23.023438 29.152344 C 20.671875 26.765625 17.949219 24 12 24 Z M 12 24 "/>
</g>
</svg>
